M48
; DRILL file {KiCad (5.1.6)-1} date 11/10/20 13:56:42
; FORMAT={-:-/ absolute / inch / decimal}
; #@! TF.CreationDate,2020-11-10T13:56:42+01:00
; #@! TF.GenerationSoftware,Kicad,Pcbnew,(5.1.6)-1
; #@! TF.FileFunction,Plated,1,2,PTH
FMAT,2
INCH
T1C0.0197
T2C0.0200
T3C0.0240
T4C0.0315
T5C0.0393
T6C0.0394
T7C0.0510
T8C0.0630
T9C0.1260
%
G90
G05
T1
X6.0632Y-2.5571
X6.0848Y-2.5049
X6.0848Y-2.6093
X6.137Y-2.4833
X6.137Y-2.6309
X6.1892Y-2.5049
X6.1892Y-2.6093
X6.2108Y-2.5571
X4.2108Y-2.5571
X4.2324Y-2.5049
X4.2324Y-2.6093
X4.2846Y-2.4833
X4.2846Y-2.6309
X4.3368Y-2.5049
X4.3368Y-2.6093
X4.3585Y-2.5571
X6.0632Y-5.876
X6.0848Y-5.8238
X6.0848Y-5.9282
X6.137Y-5.8022
X6.137Y-5.9498
X6.1892Y-5.8238
X6.1892Y-5.9282
X6.2108Y-5.876
X4.2108Y-5.876
X4.2324Y-5.8238
X4.2324Y-5.9282
X4.2846Y-5.8022
X4.2846Y-5.9498
X4.3368Y-5.8238
X4.3368Y-5.9282
X4.3585Y-5.876
T2
X4.08Y-2.81
X4.1Y-2.3
X4.1Y-2.4
X4.1Y-2.5
X4.1Y-4.0
X4.1Y-4.2
X4.1Y-4.4
X4.1Y-4.6
X4.1Y-4.8
X4.1Y-5.0
X4.1Y-5.2
X4.1Y-5.4
X4.1Y-5.6
X4.1Y-5.8
X4.1Y-5.95
X4.2Y-2.3
X4.2Y-2.4
X4.2Y-2.7
X4.25Y-3.15
X4.25Y-3.35
X4.25Y-3.55
X4.3Y-2.3
X4.3Y-3.75
X4.3Y-4.6
X4.3Y-4.8
X4.3Y-5.0
X4.3Y-5.3
X4.3Y-5.6
X4.35Y-3.0
X4.4Y-2.2
X4.4Y-2.3
X4.45Y-2.7
X4.45Y-2.8
X4.45Y-2.9
X4.45Y-3.0
X4.5Y-2.2
X4.5Y-2.3
X4.5Y-3.9
X4.5Y-4.05
X4.5Y-4.6
X4.5Y-4.8
X4.5Y-5.0
X4.5Y-5.3
X4.5Y-5.95
X4.55Y-3.0
X4.55Y-3.15
X4.6Y-2.2
X4.6Y-3.3
X4.7Y-2.5
X4.7Y-3.0
X4.7Y-3.2
X4.7Y-3.3
X4.7Y-3.9
X4.7Y-4.05
X4.7Y-4.4
X4.7Y-4.6
X4.7Y-4.8
X4.7Y-5.0
X4.7Y-5.3
X4.7Y-5.95
X4.8Y-2.6
X4.8Y-2.8
X4.8Y-3.6
X4.8Y-3.8
X4.85Y-3.0
X4.85Y-3.2
X4.85Y-3.3
X4.9Y-2.9
X4.9Y-4.05
X4.9Y-4.6
X4.9Y-4.8
X4.9Y-5.95
X5.0Y-3.0
X5.0Y-3.2
X5.0Y-3.4
X5.0Y-3.6
X5.0Y-3.8
X5.1Y-2.9
X5.1Y-4.05
X5.1Y-4.6
X5.1Y-4.8
X5.1Y-5.2
X5.1Y-5.95
X5.12Y-3.165
X5.2Y-3.4
X5.2Y-3.6
X5.2Y-3.8
X5.257Y-2.574
X5.3Y-2.9
X5.3Y-3.0
X5.3Y-4.05
X5.3Y-4.6
X5.3Y-4.8
X5.3Y-5.2
X5.3Y-5.5
X5.3Y-5.95
X5.4Y-3.2
X5.4Y-3.6
X5.4Y-3.8
X5.47Y-3.19
X5.495Y-2.69
X5.5Y-2.9
X5.5Y-4.05
X5.5Y-4.05
X5.5Y-4.8
X5.5Y-5.2
X5.5Y-5.5
X5.5Y-5.95
X5.545Y-2.69
X5.6Y-3.4
X5.6Y-3.8
X5.7Y-2.9
X5.7Y-4.05
X5.7Y-4.2
X5.7Y-4.6
X5.7Y-5.2
X5.7Y-5.4
X5.7Y-5.95
X5.8Y-2.2
X5.8Y-2.4
X5.8Y-2.6
X5.8Y-2.8
X5.8Y-3.0
X5.8Y-3.2
X5.8Y-3.4
X5.8Y-3.6
X5.9Y-4.05
X5.9Y-4.2
X5.9Y-4.6
X5.9Y-4.8
X5.9Y-5.2
X5.9Y-5.4
X5.9Y-5.95
X6.0Y-2.2
X6.0Y-2.4
X6.0Y-2.6
X6.0Y-2.8
X6.0Y-3.0
X6.0Y-3.2
X6.0Y-3.4
X6.0Y-3.6
X6.0Y-3.8
X6.1Y-4.0
X6.1Y-4.2
X6.1Y-4.6
X6.1Y-4.8
X6.1Y-5.2
X6.1Y-5.6
X6.2Y-2.3
X6.2Y-2.4
X6.2Y-2.8
X6.2Y-3.0
X6.2Y-3.2
X6.2Y-3.4
X6.2Y-3.6
X6.2Y-3.8
X6.3Y-3.8
X6.3Y-4.0
X6.3Y-4.2
X6.3Y-4.8
X6.3Y-5.0
X6.3Y-5.2
X6.3Y-5.4
X6.3Y-5.6
X6.3Y-5.8
X6.3Y-5.95
T3
X5.24Y-2.755
T4
X4.5393Y-3.4125
X4.5393Y-3.5125
X4.5393Y-3.6125
X4.5393Y-3.7125
T5
X5.01Y-4.38
X5.01Y-4.68
X5.01Y-4.78
X5.01Y-4.88
X5.01Y-4.98
X5.11Y-4.38
X5.11Y-4.98
X5.21Y-4.38
X5.21Y-4.98
X5.31Y-4.38
X5.31Y-4.98
X5.41Y-4.38
X5.41Y-4.98
X5.51Y-4.38
X5.51Y-4.98
X5.61Y-4.38
X5.61Y-4.98
X5.66Y-4.88
X5.71Y-4.38
X5.71Y-4.98
X5.76Y-4.88
X5.81Y-4.38
X5.81Y-4.98
X5.91Y-4.38
X5.91Y-4.98
X6.01Y-4.38
X6.01Y-4.98
X6.11Y-4.38
X6.11Y-4.98
X6.21Y-4.43
X6.21Y-4.53
X6.21Y-4.63
X6.21Y-4.73
X6.21Y-4.83
X6.21Y-4.93
T6
X4.6Y-2.26
X4.6Y-2.36
X4.6Y-2.46
X4.6Y-2.56
X4.9568Y-2.39
X5.0568Y-2.39
X5.1568Y-2.39
X5.2568Y-2.39
X5.3568Y-2.39
X5.4568Y-2.39
X4.205Y-5.405
X4.305Y-4.405
X4.305Y-5.405
X4.405Y-4.405
X4.405Y-5.405
X4.505Y-4.405
X4.505Y-5.405
X4.605Y-4.405
X4.605Y-5.405
X4.705Y-5.405
T7
X4.1417Y-3.26
X4.1417Y-3.46
X4.1417Y-3.66
T8
X4.2846Y-5.876
X6.137Y-2.5571
X4.2846Y-2.5571
X6.137Y-5.876
T9
X5.2068Y-5.7
X4.5281Y-5.7
X5.8856Y-5.7
T0
M30
