%TF.GenerationSoftware,KiCad,Pcbnew,(5.1.6)-1*%
%TF.CreationDate,2020-11-10T13:56:35+01:00*%
%TF.ProjectId,uCurrent Meter,75437572-7265-46e7-9420-4d657465722e,rev?*%
%TF.SameCoordinates,Original*%
%TF.FileFunction,Paste,Top*%
%TF.FilePolarity,Positive*%
%FSLAX46Y46*%
G04 Gerber Fmt 4.6, Leading zero omitted, Abs format (unit mm)*
G04 Created by KiCad (PCBNEW (5.1.6)-1) date 2020-11-10 13:56:35*
%MOMM*%
%LPD*%
G01*
G04 APERTURE LIST*
%ADD10C,1.000000*%
%ADD11R,0.550000X1.750000*%
%ADD12R,2.700000X3.200000*%
%ADD13R,1.600000X1.000000*%
%ADD14R,1.000000X1.600000*%
%ADD15R,2.450000X5.900000*%
%ADD16R,0.900000X1.700000*%
%ADD17R,1.700000X0.900000*%
%ADD18R,1.800000X1.500000*%
%ADD19R,0.650000X1.060000*%
G04 APERTURE END LIST*
D10*
%TO.C,*%
X106045000Y-144780000D03*
%TD*%
%TO.C,*%
X158115000Y-144780000D03*
%TD*%
%TO.C,*%
X149860000Y-58420000D03*
%TD*%
D11*
%TO.C,U1*%
X142113000Y-77360000D03*
X140843000Y-77360000D03*
X139573000Y-77360000D03*
X138303000Y-77360000D03*
X138303000Y-69960000D03*
X139573000Y-69960000D03*
X140843000Y-69960000D03*
X142113000Y-69960000D03*
%TD*%
D12*
%TO.C,R12*%
X137004000Y-144780000D03*
X144904000Y-144780000D03*
%TD*%
%TO.C,R11*%
X119764000Y-144780000D03*
X127664000Y-144780000D03*
%TD*%
D13*
%TO.C,C1*%
X135128000Y-82716500D03*
X135128000Y-79716500D03*
%TD*%
%TO.C,C2*%
X125984000Y-67032000D03*
X125984000Y-64032000D03*
%TD*%
D14*
%TO.C,C3*%
X123674000Y-71120000D03*
X120674000Y-71120000D03*
%TD*%
%TO.C,C4*%
X120674000Y-73660000D03*
X123674000Y-73660000D03*
%TD*%
D13*
%TO.C,C5*%
X112268000Y-60428000D03*
X112268000Y-57428000D03*
%TD*%
%TO.C,C6*%
X109220000Y-57428000D03*
X109220000Y-60428000D03*
%TD*%
%TO.C,C7*%
X104394000Y-68810000D03*
X104394000Y-65810000D03*
%TD*%
%TO.C,C8*%
X112522000Y-78764000D03*
X112522000Y-81764000D03*
%TD*%
%TO.C,C9*%
X109728000Y-81764000D03*
X109728000Y-78764000D03*
%TD*%
%TO.C,D1*%
X103632000Y-78716000D03*
X103632000Y-75716000D03*
%TD*%
D15*
%TO.C,L1*%
X110255000Y-71628000D03*
X115805000Y-71628000D03*
%TD*%
D16*
%TO.C,R1*%
X117930000Y-88900000D03*
X120830000Y-88900000D03*
%TD*%
%TO.C,R2*%
X120830000Y-86360001D03*
X117930000Y-86360001D03*
%TD*%
D17*
%TO.C,R3*%
X141478000Y-79830000D03*
X141478000Y-82730000D03*
%TD*%
%TO.C,R4*%
X141986000Y-66982000D03*
X141986000Y-64082000D03*
%TD*%
%TO.C,R5*%
X138938000Y-79830000D03*
X138938000Y-82730000D03*
%TD*%
%TO.C,R6*%
X138430000Y-64082000D03*
X138430000Y-66982000D03*
%TD*%
%TO.C,R7*%
X130556000Y-66982000D03*
X130556000Y-64082000D03*
%TD*%
%TO.C,R8*%
X131826000Y-79830000D03*
X131826000Y-82730000D03*
%TD*%
D16*
%TO.C,R9*%
X127180000Y-134366000D03*
X124280000Y-134366000D03*
%TD*%
%TO.C,R10*%
X127180000Y-131572000D03*
X124280000Y-131572000D03*
%TD*%
D18*
%TO.C,R13*%
X110490000Y-89940000D03*
X110490000Y-92940000D03*
%TD*%
%TO.C,R14*%
X110490000Y-87352000D03*
X110490000Y-84352000D03*
%TD*%
D17*
%TO.C,R15*%
X106426000Y-75766000D03*
X106426000Y-78666000D03*
%TD*%
D11*
%TO.C,U2*%
X128016000Y-77360000D03*
X129286000Y-77360000D03*
X130556000Y-77360000D03*
X131826000Y-77360000D03*
X131826000Y-69960000D03*
X130556000Y-69960000D03*
X129286000Y-69960000D03*
X128016000Y-69960000D03*
%TD*%
D19*
%TO.C,U3*%
X106172000Y-71036000D03*
X105222000Y-71036000D03*
X107122000Y-71036000D03*
X107122000Y-73236000D03*
X106172000Y-73236000D03*
X105222000Y-73236000D03*
%TD*%
M02*
